<?xml version="1.0" encoding="UTF-8" standalone="no"?>
<!-- Created with Inkscape (http://www.inkscape.org/) -->

<svg
   width="210mm"
   height="297mm"
   viewBox="0 0 210 297"
   version="1.1"
   id="svg5"
   xml:space="preserve"
   sodipodi:docname="logo.svg"
   inkscape:version="1.2.2 (732a01da63, 2022-12-09)"
   xmlns:inkscape="http://www.inkscape.org/namespaces/inkscape"
   xmlns:sodipodi="http://sodipodi.sourceforge.net/DTD/sodipodi-0.dtd"
   xmlns="http://www.w3.org/2000/svg"
   xmlns:svg="http://www.w3.org/2000/svg"><sodipodi:namedview
     id="namedview7"
     pagecolor="#505050"
     bordercolor="#eeeeee"
     borderopacity="1"
     inkscape:showpageshadow="0"
     inkscape:pageopacity="0"
     inkscape:pagecheckerboard="0"
     inkscape:deskcolor="#505050"
     inkscape:document-units="mm"
     showgrid="false"
     showguides="true"
     inkscape:zoom="0.64"
     inkscape:cx="223.4375"
     inkscape:cy="478.125"
     inkscape:window-width="1920"
     inkscape:window-height="1027"
     inkscape:window-x="-8"
     inkscape:window-y="-8"
     inkscape:window-maximized="1"
     inkscape:current-layer="layer1" /><defs
     id="defs2" /><g
     inkscape:label="Camada 1"
     inkscape:groupmode="layer"
     id="layer1"><circle
       style="fill:#f65151;stroke-width:0.264583;fill-opacity:1"
       id="path233"
       cx="105.4286"
       cy="147.3741"
       r="75.760826" /><g
       style="clip-rule:evenodd;fill:#000000;fill-rule:evenodd;stroke-linejoin:round;stroke-miterlimit:2"
       id="g10163"
       transform="matrix(3.3072917,0,0,3.3072917,324.11714,17.39496)"><g
         transform="translate(-1216,-256)"
         id="g10098">
        <rect
   id="Icons"
   x="0"
   y="0"
   width="1280"
   height="800"
   style="fill:none" />
        
    <g
   style="fill:#fef4f4;fill-opacity:1"
   id="g17452"
   transform="matrix(1.3622967,0,0,1.3622967,1134.9802,272.84611)"><path
     d="M 12.406,14.75 C 12.312,12.656 12.187,11.531 10.937,10.156 9.343,8.375 8.749,6.656 10.062,4 c 0.344,1.781 0.469,3.375 1.719,4.344 1.25,0.969 2.281,3.594 0.625,6.406 z m -2.343,0 C 10,13.625 9.938,13.062 9.25,12.281 8.406,11.343 8.062,10.437 8.781,9 8.969,9.969 9,10.813 9.687,11.313 c 0.687,0.5 1.281,1.938 0.375,3.438 z m 5.656,9.875 h 5.688 c 0.344,0 0.469,0.25 0.25,0.531 0,0 -2.219,2.844 -5.281,2.844 H 5.407 c 0,0 -5.281,-2.844 -5.281,-2.844 -0.219,-0.281 -0.125,-0.531 0.219,-0.531 H 5.97 C 5.189,24.219 4.032,22.437 4.032,20.219 V 15.531 H 17.72 v 0.375 c 0.438,-0.375 0.969,-0.563 1.531,-0.563 0.781,0 2.25,0.813 2.25,2.219 0,2.031 -1.344,2.781 -2.125,3.313 0,0 -1.469,1.156 -2.5,2.5 -0.344,0.594 -0.75,1.063 -1.156,1.25 z m 3.531,-8.437 c -0.5,0 -1.125,0.219 -1.531,1.219 v 2.594 c 0,0.344 -0.031,0.75 -0.094,1.094 0.688,-0.688 1.5,-1.156 1.5,-1.156 0.5,-0.344 1.5,-1 1.5,-2.281 0.031,-0.906 -0.813,-1.469 -1.375,-1.469 z M 6.406,16.563 H 5.531 v 1.281 h 0.875 z m 0,2.031 H 5.531 v 2.094 c 0,0 0.25,2.813 2.031,3.656 -1.094,-1.281 -1.156,-2.75 -1.156,-3.656 z"
     id="path17443"
     style="fill:#fef4f4;fill-opacity:1" /></g></g></g></g></svg>
